<svg xmlns="http://www.w3.org/2000/svg" viewBox="0 0 64 64">
  <rect x="6" y="6" width="52" height="52" rx="12" fill="#0f766e" />
  <path d="M20 31.5 32 22l12 9.5V44a2 2 0 0 1-2 2H22a2 2 0 0 1-2-2Z" fill="none" stroke="#f8fafc" stroke-linecap="round" stroke-linejoin="round" stroke-width="3.2" />
  <circle cx="27" cy="36" r="2.2" fill="#f8fafc" />
  <circle cx="37" cy="36" r="2.2" fill="#f8fafc" />
  <circle cx="32" cy="45" r="5.5" fill="#f59e0b" />
  <path d="M32 40.7v8.6m2.4-6.3c-.5-.7-1.4-1-2.5-1-1.4 0-2.3.6-2.3 1.6s.9 1.5 2.4 1.8c1.6.3 2.4.8 2.4 1.8 0 1.1-.9 1.7-2.3 1.7-1.2 0-2.2-.4-2.9-1.1" fill="none" stroke="#7c2d12" stroke-linecap="round" stroke-linejoin="round" stroke-width="1.6" />
</svg>
